# xmcd
#
# Track frame offsets:
#	150
#	12300
#	25145
#	39357
#	51470
#	64457
#	75467
#	88840
#	105080
#	118662
#	132722
#	148395
#	166480
#	181572
#	200575
#	216312
#
# Disc length: 3079
#
# Revision: 1
# Processed by: cddbd v1.5.1PL0 Copyright (c) Steve Scherf et al.
# Submitted via: CDex 1.51
# Normalized: r0:DSETVAR1
#
DISCID=e70c0510
DTITLE=Various Artist - HMV Greatest Jazz Collection CD1
DYEAR=2001
DGENRE=Jazz
TTITLE0=original dixieland jazz band - tiger rag
TTITLE1=bix beiderbecke and his gang - louisiana
TTITLE2=earl hines - stormy monday blues
TTITLE3=louis armstrong - st louis blues
TTITLE4=jelly roll morton - high society
TTITLE5=django reinhardt - swing 42
TTITLE6=sidney bechet - maple leaf rag
TTITLE7=glen miller - in the mood
TTITLE8=benny goodman and his orchestra - bugle call rag
TTITLE9=woody herman - basin street blues
TTITLE10=cab calloway - minnie the moocher (the ho de ho song)
TTITLE11=louis armstrong and duke ellington - mood indigo
TTITLE12=count basie - cheek to cheek
TTITLE13=buddy rich - straight, no chaser
TTITLE14=artie shaw - moonglow
TTITLE15=dizzy gillespie - coast to coast
EXTD=YEAR: 2001
EXTT0=
EXTT1=
EXTT2=
EXTT3=
EXTT4=
EXTT5=
EXTT6=
EXTT7=
EXTT8=
EXTT9=
EXTT10=
EXTT11=
EXTT12=
EXTT13=
EXTT14=
EXTT15=
PLAYORDER=
